<?xml version="1.0" standalone="no"?>
<!DOCTYPE svg PUBLIC "-//W3C//DTD SVG 20010904//EN"
 "http://www.w3.org/TR/2001/REC-SVG-20010904/DTD/svg10.dtd">
<svg version="1.0" xmlns="http://www.w3.org/2000/svg"
 width="79.000000pt" height="75.000000pt" viewBox="0 0 79.000000 75.000000"
 preserveAspectRatio="xMidYMid meet">

<g transform="translate(0.000000,75.000000) scale(0.100000,-0.100000)"
fill="#000000" stroke="none">
<path d="M0 415 l0 -335 335 0 335 0 0 335 0 335 -335 0 -335 0 0 -335z m323
109 c9 -3 13 -13 10 -25 -5 -18 -11 -20 -40 -14 -47 8 -73 -15 -73 -65 0 -56
19 -74 69 -67 39 5 42 4 39 -16 -5 -34 -57 -44 -105 -21 -101 50 -65 214 48
214 20 0 44 -3 52 -6z m165 -2 c25 -17 2 -41 -36 -39 -50 3 -49 -21 1 -47 40
-21 53 -49 43 -90 -7 -30 -56 -49 -103 -40 -26 5 -33 11 -33 30 0 22 3 23 45
17 37 -5 45 -3 45 10 0 9 -10 22 -22 28 -64 33 -86 83 -51 121 17 19 86 25
111 10z"/>
</g>
</svg>
